{"title":"Leccami &amp; Scopame Vuoi Tu - Lick &amp; Fuck Me Like You Want","uid":6712770,"size":1261017974,"categoryP":"porn","categoryS":"movies","magnet":"?xt=urn:btih:c02358073e039fad1832d1d8a7b34439f6e3172f&amp;dn=Leccami+%26amp%3B+Scopame+Vuoi+Tu+-+Lick+%26amp%3B+Fuck+Me+Like+You+Want&amp;tr=udp%3A%2F%2Ftracker.openbittorrent.com%3A80&amp;tr=udp%3A%2F%2Fopen.demonii.com%3A1337&amp;tr=udp%3A%2F%2Ftracker.coppersurfer.tk%3A6969&amp;tr=udp%3A%2F%2Fexodus.desync.com%3A6969","seeders":0,"leechers":1,"uploader":"silviuss","files":1,"time":1317421429,"description":"Leccami &amp; Scopami Come Vuoi Tu - Lick &amp; Fuck Me Like You Want (2010)\n\nCover: &lt;a href=&quot;\nhttp://imagebb.org/view.php?filename=36587btv7777.jpg&quot; rel=&quot;nofollow&quot; target=&quot;_NEW&quot;&gt;\nhttp://imagebb.org/view.php?filename=36587btv7777.jpg&lt;/a&gt;\n\nPreview: &lt;a href=&quot;\nhttp://imagebb.org/view.php?filename=383T.S.C.V.Tu_s.jpg&quot; rel=&quot;nofollow&quot; target=&quot;_NEW&quot;&gt;\nhttp://imagebb.org/view.php?filename=383T.S.C.V.Tu_s.jpg&lt;/a&gt;\n\nInfo:\nFormat                           : AVI\nFormat/Info                      : Audio Video Interleave\nFile size                        : 1.17 GiB\nDuration                         : 2h 16mn\nOverall bit rate                 : 1 229 Kbps\nWriting library                  : VirtualDub build 32593/release\n\nVideo\nID                               : 0\nFormat                           : MPEG-4 Visual\nFormat settings, BVOP            : 1\nFormat settings, QPel            : No\nFormat settings, GMC             : No warppoints\nFormat settings, Matrix          : Default (H.263)\nMuxing mode                      : Packed bitstream\nCodec ID                         : DX50\nCodec ID/Hint                    : DivX 5\nDuration                         : 2h 16mn\nBit rate                         : 1 092 Kbps\nWidth                            : 640 pixels\nHeight                           : 480 pixels\nDisplay aspect ratio             : 4:3\nFrame rate                       : 25.000 fps\nColor space                      : YUV\nChroma subsampling               : 4:2:0\nBit depth                        : 8 bits\nScan type                        : Progressive\nCompression mode                 : Lossy\nBits/(Pixel*Frame)               : 0.142\nStream size                      : 1.04 GiB (89%)\nWriting library                  : DivX 6.6.1.4\n\nAudio\nID                               : 1\nFormat                           : MPEG Audio\nFormat version                   : Version 1\nFormat profile                   : Layer 3\nCodec ID                         : 55\nCodec ID/Hint                    : MP3\nDuration                         : 2h 16mn\nBit rate mode                    : Constant\nBit rate                         : 128 Kbps\nChannel(s)                       : 2 channels\nSampling rate                    : 48.0 KHz\nCompression mode                 : Lossy\nStream size                      : 125 MiB (10%)\nAlignment                        : Split accross interleaves\nInterleave, duration             : 40 ms (1.00 video frame)\nInterleave, preload duration     : 500 ms\n\n\n","torrent":{"xt":"urn:btih:c02358073e039fad1832d1d8a7b34439f6e3172f","amp;dn":"Leccami+%26amp%3B+Scopame+Vuoi+Tu+-+Lick+%26amp%3B+Fuck+Me+Like+You+Want","amp;tr":["udp%3A%2F%2Ftracker.openbittorrent.com%3A80","udp%3A%2F%2Fopen.demonii.com%3A1337","udp%3A%2F%2Ftracker.coppersurfer.tk%3A6969","udp%3A%2F%2Fexodus.desync.com%3A6969"],"infoHash":"c02358073e039fad1832d1d8a7b34439f6e3172f","infoHashBuffer":{"type":"Buffer","data":[192,35,88,7,62,3,159,173,24,50,209,216,167,179,68,57,246,227,23,47]},"announce":[],"urlList":[]}}